<?xml version="1.0" encoding="UTF-8" standalone="no"?>
<svg
   xmlns:svg="http://www.w3.org/2000/svg"
   xmlns="http://www.w3.org/2000/svg"
   width="400.0"
   height="400.0"

>
    <g transform="scale(15.0, -15.0)   translate(18.333333433333333,-11.333333333333334)" stroke-width="0.06666666666666667"  fill="none">
       <!-- hidden lines -->
       <g  stroke="rgb(160,160,160)" fill="none" stroke-dasharray="0.06666666666666667,0.06666666666666667" >
			<path d="M-5.0,-10.0 L5.0,-10.0 " />
			<path d="M-5.0,-10.0 L-5.0,10.0 " />
			<path d="M-5.0,10.0 L5.0,10.0 " />
			<path d="M5.0,-10.0 L5.0,10.0 " />
			<path d="M5.0,-2.5 L5.0,-2.437319780454559 L5.0,-2.252422169756048 L5.0,-1.9545787061700746 L5.0,-1.5587245046468339 L5.0,-1.0847093477938954 L5.0,-0.5563023348907861 L5.0,-1.6695863770123361e-16 L5.0,0.5563023348907858 L5.0,1.0847093477938952 L5.0,1.5587245046468337 L5.0,1.9545787061700741 L5.0,2.2524221697560476 L5.0,2.437319780454559 L5.0,2.4999999999999987 " />
			<path d="M5.0,2.5 L5.0,2.437319780454559 L5.0,2.252422169756048 L5.0,1.9545787061700748 L5.0,1.5587245046468339 L5.0,1.0847093477938956 L5.0,0.5563023348907865 L5.0,4.453647618724429e-16 L5.0,-0.5563023348907856 L5.0,-1.084709347793895 L5.0,-1.5587245046468334 L5.0,-1.9545787061700741 L5.0,-2.2524221697560476 L5.0,-2.4373197804545588 L5.0,-2.4999999999999973 " />
			<path d="M-5.0,-2.5 L-5.0,-2.437319780454559 L-5.0,-2.252422169756048 L-5.0,-1.9545787061700746 L-5.0,-1.5587245046468339 L-5.0,-1.0847093477938954 L-5.0,-0.5563023348907861 L-5.0,-1.6695863770123361e-16 L-5.0,0.5563023348907858 L-5.0,1.0847093477938952 L-5.0,1.5587245046468337 L-5.0,1.9545787061700741 L-5.0,2.2524221697560476 L-5.0,2.437319780454559 L-5.0,2.4999999999999987 " />
			<path d="M-5.0,2.5 L-5.0,2.437319780454559 L-5.0,2.252422169756048 L-5.0,1.9545787061700748 L-5.0,1.5587245046468339 L-5.0,1.0847093477938956 L-5.0,0.5563023348907865 L-5.0,4.453647618724429e-16 L-5.0,-0.5563023348907856 L-5.0,-1.084709347793895 L-5.0,-1.5587245046468334 L-5.0,-1.9545787061700741 L-5.0,-2.2524221697560476 L-5.0,-2.4373197804545588 L-5.0,-2.4999999999999973 " />
			<path d="M5.0,-2.5 L-5.0,-2.5 " />
			<path d="M5.0,2.5 L-5.0,2.5 " />

       </g>

       <!-- solid lines -->
       <g  stroke="rgb(0,0,0)" fill="none">
			<path d="M-5.0,-10.0 L5.0,-10.0 " />
			<path d="M5.0,-10.0 L5.0,10.0 " />
			<path d="M-5.0,-10.0 L-5.0,10.0 " />
			<path d="M-5.0,10.0 L5.0,10.0 " />

       </g>
    </g>
    
</svg>
