<?xml version="1.0" encoding="UTF-8" standalone="no"?>
<svg
   xmlns:svg="http://www.w3.org/2000/svg"
   xmlns="http://www.w3.org/2000/svg"
   width="400.0"
   height="400.0"

>
    <g transform="scale(10.606601717798211, -10.606601717798211)   translate(32.99831645537222,-9.58715854531818)" stroke-width="0.09428090415820635"  fill="none">
       <!-- hidden lines -->
       <g  stroke="rgb(160,160,160)" fill="none" stroke-dasharray="0.09428090415820635,0.09428090415820635" >
			<path d="M-2.366348929019522e-16,2.1004201260420143 L-2.0745431694811043e-16,-7.701540462154053 " />
			<path d="M-2.366348929019522e-16,2.1004201260420143 L-14.142135623730951,4.900980294098034 " />
			<path d="M-2.366348929019522e-16,2.1004201260420143 L14.142135623730951,4.900980294098034 " />
			<path d="M-1.7677669529663689,4.5509102730910325 L-1.9325261334068426,4.586908818300266 L-2.078674030756363,4.625932043510366 L-2.14432152500068,4.646461509597792 L-2.2048031608708873,4.6676041337302925 L-2.259973232808608,4.689308981474456 L-2.309698831278217,4.7115237639509475 L-2.353860162957552,4.734194963802995 L-2.392350839330522,4.757267964124393 L-2.4250781329863598,4.780687180036411 L-2.451963201008076,4.804396192596635 L-2.4729412749119524,4.828337884717145 L-2.487961816680492,4.852454578764577 L-2.496988640512931,4.876688175510599 L-2.5,4.900980294098032 " />
			<path d="M-2.5,4.9009802940980345 L-2.496988640512931,4.92527241268547 L-2.4879618166804924,4.9495060094314915 L-2.4729412749119524,4.973622703478924 L-2.451963201008076,4.997564395599433 L-2.4250781329863598,5.021273408159658 L-2.3923508393305224,5.044692624071676 L-2.3538601629575524,5.067765624393074 L-2.309698831278217,5.0904368242451214 L-2.259973232808608,5.112651606721613 L-2.204803160870888,5.1343564544657765 L-2.1443215250006804,5.155499078598276 L-2.0786740307563636,5.176028544685703 L-1.9325261334068429,5.215051769895803 L-1.7677669529663695,5.2510503151050365 L-1.5859832104091132,5.283677494644234 L-1.3889255825490057,5.312619090938601 L-1.178491842064995,5.3375963805947375 L-0.9567085809127259,5.358368818659279 L-0.7257116931361584,5.374736355198294 L-0.48772580504032176,5.386541361887508 L-0.24504285082390123,5.393670150059229 L-5.806799091204096e-16,5.396054065586371 L0.24504285082390012,5.393670150059229 L0.48772580504032065,5.386541361887508 L0.7257116931361572,5.374736355198294 L0.9567085809127249,5.358368818659279 L1.1784918420649937,5.3375963805947375 L1.3889255825490043,5.312619090938601 L1.585983210409112,5.283677494644234 L1.7677669529663682,5.251050315105037 L1.9325261334068429,5.215051769895803 L2.078674030756363,5.176028544685703 L2.14432152500068,5.155499078598277 L2.204803160870887,5.1343564544657765 L2.259973232808608,5.112651606721613 L2.309698831278216,5.0904368242451214 L2.353860162957551,5.067765624393074 L2.3923508393305215,5.0446926240716765 L2.4250781329863593,5.021273408159659 L2.4519632010080756,4.997564395599434 L2.4729412749119524,4.973622703478924 L2.4879618166804924,4.9495060094314915 L2.496988640512931,4.925272412685471 L2.5,4.900980294098039 " />
			<path d="M2.5,4.9009802940980345 L2.498305961470874,4.882758003418444 L2.4932261416967254,4.864560408148853 L2.48476742500589,4.846412170231282 L2.4729412749119524,4.828337884717145 L2.457763718578041,4.81036204643528 L2.4392553250963216,4.792509016795801 L2.4174411776121305,4.774802990774765 L2.3923508393305224,4.757267964124393 L2.3324819970868473,4.722805701020725 L2.2599732328086084,4.689308981474457 L2.175217477771779,4.656959327111052 L2.078674030756363,4.625932043510366 L1.9708660690665158,4.5963952702105155 L1.852377813387398,4.568509069545155 L1.7238513618426676,4.542424559251826 L1.5859832104091143,4.518283093551835 L1.4395204785446138,4.4962154971394925 L1.285256860483055,4.476341356231751 L1.1240283241365174,4.458768370520136 L0.9567085809127255,4.44359176953679 L0.7842043509972297,4.430893796597381 L0.607450449758161,4.420743263117454 L0.4274047219007544,4.413195175717404 L0.24504285082390292,4.40829043813684 L0.06135307130728221,4.406055629573669 L-0.12266918581854348,4.406502860649126 L-0.3060266879980389,4.409629707779262 L-0.487725805040319,4.415419226308561 L-0.6667818936872442,4.423840042334494 L-0.8422246334805483,4.434846522725415 L-1.013103285012473,4.448379022410456 L-1.1784918420649926,4.4643642076013315 L-1.3374940497177408,4.482715453194494 L-1.4892482612310818,4.503333312200074 L-1.6329321073844407,4.526106054653735 L-1.7677669529663593,4.55091027309103 " />
			<path d="M2.5,-4.900980294098034 L2.5,4.900980294098034 " />
			<path d="M-2.5000000000000004,-4.900980294098034 L-2.5000000000000004,4.900980294098034 " />

       </g>

       <!-- solid lines -->
       <g  stroke="rgb(0,0,0)" fill="none">
			<path d="M-2.0745431694811043e-16,-7.701540462154053 L-14.142135623730951,-4.900980294098034 " />
			<path d="M-14.142135623730951,4.900980294098034 L-14.142135623730951,-4.900980294098034 " />
			<path d="M14.142135623730951,4.9009802940980345 L14.142135623730951,-4.900980294098033 " />
			<path d="M-2.0745431694811043e-16,-7.701540462154053 L14.142135623730951,-4.900980294098034 " />
			<path d="M-14.142135623730951,-4.9009802940980345 L6.11632558641914e-16,-2.100420126042015 " />
			<path d="M14.142135623730951,-4.900980294098034 L-6.11632558641914e-16,-2.100420126042014 " />
			<path d="M-1.7677669529663687,-5.2510503151050365 L-1.9325261334068424,-5.215051769895802 L-2.078674030756363,-5.176028544685702 L-2.14432152500068,-5.155499078598275 L-2.2048031608708873,-5.134356454465776 L-2.259973232808608,-5.112651606721612 L-2.309698831278217,-5.090436824245121 L-2.353860162957552,-5.067765624393073 L-2.392350839330522,-5.044692624071675 L-2.4250781329863598,-5.021273408159657 L-2.451963201008076,-4.997564395599433 L-2.4729412749119524,-4.973622703478923 L-2.487961816680492,-4.949506009431491 L-2.496988640512931,-4.9252724126854694 L-2.5,-4.900980294098036 " />
			<path d="M-2.5,-4.900980294098034 L-2.496988640512931,-4.876688175510598 L-2.4879618166804924,-4.8524545787645765 L-2.4729412749119524,-4.828337884717144 L-2.451963201008076,-4.804396192596635 L-2.4250781329863598,-4.78068718003641 L-2.3923508393305224,-4.7572679641243925 L-2.3538601629575524,-4.734194963802994 L-2.309698831278217,-4.711523763950947 L-2.259973232808608,-4.689308981474455 L-2.204803160870888,-4.667604133730292 L-2.1443215250006804,-4.646461509597792 L-2.0786740307563636,-4.625932043510365 L-1.9325261334068426,-4.586908818300265 L-1.7677669529663693,-4.550910273091032 L-1.585983210409113,-4.518283093551834 L-1.3889255825490054,-4.489341497257467 L-1.1784918420649948,-4.464364207601331 L-0.9567085809127259,-4.4435917695367895 L-0.7257116931361584,-4.427224232997774 L-0.48772580504032176,-4.41541922630856 L-0.2450428508239012,-4.408290438136839 L-5.514993331665679e-16,-4.405906522609697 L0.24504285082390015,-4.408290438136839 L0.48772580504032065,-4.41541922630856 L0.7257116931361572,-4.427224232997774 L0.9567085809127249,-4.4435917695367895 L1.178491842064994,-4.464364207601331 L1.3889255825490046,-4.489341497257467 L1.5859832104091123,-4.518283093551834 L1.7677669529663684,-4.550910273091031 L1.932526133406843,-4.586908818300265 L2.078674030756363,-4.625932043510365 L2.14432152500068,-4.646461509597791 L2.204803160870887,-4.667604133730292 L2.259973232808608,-4.689308981474455 L2.309698831278216,-4.711523763950947 L2.353860162957551,-4.734194963802993 L2.3923508393305215,-4.757267964124392 L2.4250781329863593,-4.780687180036409 L2.4519632010080756,-4.804396192596634 L2.4729412749119524,-4.828337884717144 L2.4879618166804924,-4.8524545787645765 L2.496988640512931,-4.876688175510597 L2.5,-4.900980294098029 " />
			<path d="M2.5,-4.900980294098034 L2.498305961470874,-4.919202584777624 L2.4932261416967254,-4.937400180047215 L2.48476742500589,-4.955548417964786 L2.4729412749119524,-4.973622703478923 L2.457763718578041,-4.991598541760788 L2.4392553250963216,-5.009451571400267 L2.4174411776121305,-5.027157597421303 L2.3923508393305224,-5.044692624071675 L2.3324819970868473,-5.079154887175343 L2.2599732328086084,-5.112651606721611 L2.175217477771779,-5.145001261085016 L2.078674030756363,-5.176028544685702 L1.970866069066516,-5.2055653179855526 L1.8523778133873983,-5.233451518650913 L1.7238513618426679,-5.259536028944243 L1.5859832104091145,-5.283677494644233 L1.439520478544614,-5.3057450910565755 L1.2852568604830552,-5.325619231964318 L1.1240283241365177,-5.343192217675932 L0.9567085809127255,-5.358368818659278 L0.7842043509972297,-5.371066791598687 L0.607450449758161,-5.381217325078614 L0.4274047219007544,-5.388765412478664 L0.24504285082390295,-5.393670150059228 L0.061353071307282236,-5.395904958622399 L-0.12266918581854344,-5.395457727546942 L-0.3060266879980389,-5.392330880416806 L-0.487725805040319,-5.386541361887507 L-0.6667818936872442,-5.378120545861574 L-0.8422246334805483,-5.367114065470653 L-1.0131032850124728,-5.353581565785612 L-1.1784918420649924,-5.337596380594737 L-1.3374940497177406,-5.319245135001574 L-1.4892482612310816,-5.298627275995994 L-1.6329321073844405,-5.275854533542333 L-1.767766952966359,-5.251050315105038 " />
			<path d="M-14.142135623730951,4.900980294098034 L6.11632558641914e-16,7.701540462154053 " />
			<path d="M2.0745431694811043e-16,7.701540462154053 L2.366348929019522e-16,-2.100420126042014 " />
			<path d="M14.142135623730951,4.9009802940980345 L-6.11632558641914e-16,7.701540462154054 " />

       </g>
    </g>

</svg>
